<?xml version="1.0" encoding="utf-8"?>
<!-- Generator: Adobe Illustrator 15.0.0, SVG Export Plug-In  -->
<!DOCTYPE svg PUBLIC "-//W3C//DTD SVG 1.1//EN" "http://www.w3.org/Graphics/SVG/1.1/DTD/svg11.dtd" [
	<!ENTITY ns_flows "http://ns.adobe.com/Flows/1.0/">
]>
<svg version="1.1"
	 xmlns="http://www.w3.org/2000/svg" xmlns:xlink="http://www.w3.org/1999/xlink" xmlns:a="http://ns.adobe.com/AdobeSVGViewerExtensions/3.0/"
	 x="0px" y="0px" width="140px" height="40px" viewBox="-0.298 -1.879 140 40" enable-background="new -0.298 -1.879 140 40"
	 xml:space="preserve">
<defs>
</defs>
<path fill-rule="evenodd" clip-rule="evenodd" fill="#FFFFFF" d="M121.333,22.369c1.172-6.081,3.335-7.988,7.198-7.988
	c0.868,0,1.626,0.024,2.269,0.141l-2.884,14.91c-0.842,0.732-1.992,1.184-3.501,1.184C121.386,30.615,120.155,28.388,121.333,22.369
	z M135.874,28.64l3.529-18.204c0,0-5.406-1.179-11.4-1.179c-7.789,0-12.976,4.332-14.685,13.195
	c-1.682,8.584,1.399,13.789,7.704,13.789c2.862,0,5.154-1.211,6.922-2.783c0.647,1.715,2.408,2.783,5.742,2.783
	c3.275,0,4.429-0.646,4.429-0.646l1.092-5.711c0,0-1.092,0.363-2.298,0.363C135.706,30.248,135.621,30.052,135.874,28.64z
	 M92.783,22.369c-1.177,6.02,0.059,8.246,3.082,8.246c1.515,0,2.661-0.451,3.502-1.184l2.889-14.91
	c-0.648-0.117-1.404-0.141-2.272-0.141C96.12,14.38,93.962,16.288,92.783,22.369z M107.324,28.64
	c-0.252,1.412-0.168,1.607,1.035,1.607c1.206,0,2.298-0.363,2.298-0.363l-1.092,5.711c0,0-1.147,0.646-4.422,0.646
	c-3.336,0-5.102-1.068-5.751-2.783c-1.76,1.572-4.059,2.783-6.915,2.783c-6.303,0-9.386-5.205-7.733-13.789
	c1.733-8.864,6.921-13.195,14.684-13.195c1.313,0,2.603,0.059,3.807,0.144L105.057,0h7.813L107.324,28.64z M62.221,9.257
	c3.696,0,5.546,1.465,5.91,4.081c2.24-1.802,5.49-4.081,8.992-4.081c5.069,0,6.643,2.728,5.716,7.485l-3.697,19.021h-7.819
	l3.391-17.474c0.422-2.052-0.081-2.65-1.369-2.65c-1.653,0-4.817,1.894-5.66,2.423l-3.443,17.7H56.42l3.392-17.474
	c0.42-2.052-0.059-2.65-1.375-2.65c-1.648,0-4.814,1.894-5.657,2.423l-3.417,17.7h-7.848L46.56,9.739h7.815l-0.617,3.177
	C55.973,11.2,58.999,9.257,62.221,9.257z M20.702,9.257c3.695,0,5.515,1.465,5.886,4.081c2.24-1.802,5.515-4.081,9.018-4.081
	c5.044,0,6.641,2.728,5.689,7.485l-3.669,19.021h-7.821l3.368-17.474c0.419-2.052-0.059-2.65-1.345-2.65
	c-1.653,0-4.82,1.894-5.694,2.423l-3.412,17.7h-7.82l3.392-17.474c0.391-2.052-0.083-2.65-1.371-2.65
	c-1.658,0-4.825,1.894-5.66,2.423l-3.449,17.7H0L5.042,9.739h7.814l-0.615,3.177C14.455,11.2,17.479,9.257,20.702,9.257z"/>
</svg>
